<svg xmlns="http://www.w3.org/2000/svg" viewBox="0 0 348 348" fill="none"><path d="M5.079 5.776h336.913v337.67H5.08z" stroke-width="2" stroke="#000"/><path d="M282.734 40.554c0-8.376 6.966-15.165 15.56-15.165 4.126 0 8.084 1.597 11.001 4.441 2.918 2.844 4.558 6.702 4.558 10.724 0 8.376-6.966 15.165-15.56 15.165-8.593 0-15.559-6.79-15.559-15.165z" stroke-width="2" stroke="#000"/><circle cx="58.28" cy="57.065" r="31.757" fill="#fff" stroke="#000" stroke-width="2.538" stroke-miterlimit="3.9"/><circle cx="132.843" cy="55.953" r="31.757" fill="#fff" stroke="#000" stroke-width="2.538" stroke-miterlimit="3.9"/><circle cx="208.117" cy="56.235" r="31.757" stroke="#000" stroke-width="2.538" stroke-miterlimit="3.9"/><rect width="133.879" height="133.879" x="18.417" y="194.995" ry="21.251" fill="#000" fill-rule="evenodd" stroke="#000" stroke-width="3"/><flowRoot xml:space="preserve" style="line-height:1.25;-inkscape-font-specification:arial" fill="#000" fill-opacity="1" stroke="none" font-family="arial" font-style="normal" font-weight="400" font-size="8" letter-spacing="0" word-spacing="0" font-stretch="normal" font-variant="normal"><flowRegion style="-inkscape-font-specification:arial" font-family="arial" font-weight="400" font-style="normal" font-stretch="normal" font-variant="normal"><path style="-inkscape-font-specification:arial" d="M18.417 194.995h133.879v133.879H18.417z"/></flowRegion><flowPara/></flowRoot><text style="line-height:1.25;-inkscape-font-specification:'Courier New'" x="35.418" y="54.74" font-weight="400" font-size="32" font-family="Courier New" letter-spacing="0" word-spacing="0" fill="#000" stroke="#000"/><text style="line-height:1.25;-inkscape-font-specification:'Courier New'" x="50.293" y="73.158" font-weight="400" font-size="26.667" font-family="Courier New" letter-spacing="0" word-spacing="0" fill="#000"/><path d="M87.182 241.024l-1.485 26.484q-.078 1.25-.547 1.758-.43.508-1.093.508-.703 0-1.172-.508-.43-.508-.508-1.758l-1.445-26.484q-.078-.938-.078-1.367 0-1.328.898-2.227.937-.898 2.305-.898 1.367 0 2.265.898.899.899.899 2.266 0 .39-.04 1.328zm-3.907 38.75H84.8q1.68 0 2.851 1.21 1.211 1.173 1.211 2.852 0 1.72-1.21 2.891-1.212 1.172-2.852 1.172h-1.524q-1.68 0-2.89-1.172-1.172-1.21-1.172-2.851 0-1.758 1.21-2.93 1.212-1.172 2.852-1.172z" font-size="80" aria-label="!" style="font-size:80px" font-weight="400" font-family="Courier New" letter-spacing="0" word-spacing="0" fill="#fff" stroke="#fff"/></svg>